ffmpeg version 3.4.8-0ubuntu0.2 Copyright (c) 2000-2020 the FFmpeg developers
  built with gcc 7 (Ubuntu 7.5.0-3ubuntu1~18.04)
  configuration: --prefix=/usr --extra-version=0ubuntu0.2 --toolchain=hardened --libdir=/usr/lib/x86_64-linux-gnu --incdir=/usr/include/x86_64-linux-gnu --enable-gpl --disable-stripping --enable-avresample --enable-avisynth --enable-gnutls --enable-ladspa --enable-libass --enable-libbluray --enable-libbs2b --enable-libcaca --enable-libcdio --enable-libflite --enable-libfontconfig --enable-libfreetype --enable-libfribidi --enable-libgme --enable-libgsm --enable-libmp3lame --enable-libmysofa --enable-libopenjpeg --enable-libopenmpt --enable-libopus --enable-libpulse --enable-librubberband --enable-librsvg --enable-libshine --enable-libsnappy --enable-libsoxr --enable-libspeex --enable-libssh --enable-libtheora --enable-libtwolame --enable-libvorbis --enable-libvpx --enable-libwavpack --enable-libwebp --enable-libx265 --enable-libxml2 --enable-libxvid --enable-libzmq --enable-libzvbi --enable-omx --enable-openal --enable-opengl --enable-sdl2 --enable-libdc1394 --enable-libdrm --enable-libiec61883 --enable-chromaprint --enable-frei0r --enable-libopencv --enable-libx264 --enable-shared
  libavutil      55. 78.100 / 55. 78.100
  libavcodec     57.107.100 / 57.107.100
  libavformat    57. 83.100 / 57. 83.100
  libavdevice    57. 10.100 / 57. 10.100
  libavfilter     6.107.100 /  6.107.100
  libavresample   3.  7.  0 /  3.  7.  0
  libswscale      4.  8.100 /  4.  8.100
  libswresample   2.  9.100 /  2.  9.100
  libpostproc    54.  7.100 / 54.  7.100
[rawvideo @ 0x562514b6aa20] Estimating duration from bitrate, this may be inaccurate
Input #0, rawvideo, from '../../SVC-Encoder-20220109T061506Z-001/SVC-Encoder/Dataset/RollerCoaster/ERP_8x8/tile_yuv/Tile_43_480x240.yuv':
  Duration: 00:00:10.00, start: 0.000000, bitrate: 41472 kb/s
    Stream #0:0: Video: rawvideo (I420 / 0x30323449), yuv420p, 480x240, 41472 kb/s, 30 tbr, 30 tbn, 30 tbc
Stream mapping:
  Stream #0:0 -> #0:0 (rawvideo (native) -> h264 (libx264))
Press [q] to stop, [?] for help
[libx264 @ 0x562514b77c60] using cpu capabilities: MMX2 SSE2Fast LZCNT SSSE3 SSE4.2 AVX
[libx264 @ 0x562514b77c60] profile High, level 2.1
Output #0, rawvideo, to 'RollerCoaster_Tile_43_480x240_x264_QP_40.h264':
  Metadata:
    encoder         : Lavf57.83.100
    Stream #0:0: Video: h264 (libx264), yuv420p, 480x240, q=-1--1, 30 fps, 30 tbn, 30 tbc
    Metadata:
      encoder         : Lavc57.107.100 libx264
    Side data:
      cpb: bitrate max/min/avg: 0/0/0 buffer size: 0 vbv_delay: -1
frame=  190 fps=0.0 q=46.0 PSNR=Y:nan U:nan V:nan *:nan size=      39kB time=00:00:04.90 bitrate=  65.3kbits/s speed=9.78x    frame=  300 fps=0.0 q=46.0 LPSNR=Y:inf U:inf V:inf *:inf size=      79kB time=00:00:09.93 bitrate=  65.1kbits/s speed=11.3x    
video:79kB audio:0kB subtitle:0kB other streams:0kB global headers:0kB muxing overhead: 0.000000%
[libx264 @ 0x562514b77c60] frame I:2     Avg QP:38.84  size:  3488  PSNR Mean Y:31.90 U:39.32 V:42.64 Avg:33.38 Global:33.33
[libx264 @ 0x562514b77c60] frame P:79    Avg QP:40.35  size:   570  PSNR Mean Y:30.75 U:39.30 V:42.44 Avg:32.29 Global:32.28
[libx264 @ 0x562514b77c60] frame B:219   Avg QP:45.48  size:   131  PSNR Mean Y:30.49 U:39.39 V:42.48 Avg:32.05 Global:32.04
[libx264 @ 0x562514b77c60] consecutive B-frames:  1.0%  4.7%  1.0% 93.3%
[libx264 @ 0x562514b77c60] mb I  I16..4: 29.8% 60.4%  9.8%
[libx264 @ 0x562514b77c60] mb P  I16..4:  1.4%  1.2%  0.1%  P16..4: 39.0%  4.4%  0.5%  0.0%  0.0%    skip:53.3%
[libx264 @ 0x562514b77c60] mb B  I16..4:  0.0%  0.0%  0.0%  B16..8: 16.2%  0.7%  0.0%  direct: 0.0%  skip:83.0%  L0:33.9% L1:65.9% BI: 0.2%
[libx264 @ 0x562514b77c60] 8x8 transform intra:51.7% inter:87.2%
[libx264 @ 0x562514b77c60] coded y,uvDC,uvAC intra: 29.0% 44.4% 9.5% inter: 1.5% 2.1% 0.0%
[libx264 @ 0x562514b77c60] i16 v,h,dc,p: 35% 36% 16% 14%
[libx264 @ 0x562514b77c60] i8 v,h,dc,ddl,ddr,vr,hd,vl,hu:  9% 21% 38%  7%  3%  2%  6% 10%  4%
[libx264 @ 0x562514b77c60] i4 v,h,dc,ddl,ddr,vr,hd,vl,hu: 17% 26% 25% 10%  3%  2%  7%  8%  2%
[libx264 @ 0x562514b77c60] i8c dc,h,v,p: 71% 14%  9%  6%
[libx264 @ 0x562514b77c60] Weighted P-Frames: Y:0.0% UV:0.0%
[libx264 @ 0x562514b77c60] ref P L0: 65.7% 11.8% 16.7%  5.8%
[libx264 @ 0x562514b77c60] ref B L0: 87.0%  9.5%  3.5%
[libx264 @ 0x562514b77c60] ref B L1: 90.6%  9.4%
[libx264 @ 0x562514b77c60] PSNR Mean Y:30.569 U:39.367 V:42.472 Avg:32.121 Global:32.108 kb/s:64.65
